<svg xmlns="http://www.w3.org/2000/svg"  viewBox="0 0 64 64" width="100px" height="100px"><linearGradient id="8dLVR0H0DMOYwFtuy8kvwa" x1="32" x2="32" y1="25.255" y2="40.321" gradientUnits="userSpaceOnUse"><stop offset="0" stop-color="#6dc7ff"/><stop offset="1" stop-color="#e6abff"/></linearGradient><path fill="url(#8dLVR0H0DMOYwFtuy8kvwa)" d="M38.823,33.507l-5.424,7.763c-0.68,0.972-2.119,0.971-2.799-0.002l-5.424-7.76	C24.744,32.89,25.155,32,25.876,32H28c0.552,0,1-0.434,1-0.987v-3.014C29,27.448,29.446,27,29.997,27h4.006	C34.554,27,35,27.448,35,27.999v3.014C35,31.566,35.448,32,36,32h2.124C38.844,32,39.256,32.889,38.823,33.507z"/><linearGradient id="8dLVR0H0DMOYwFtuy8kvwb" x1="23" x2="23" y1="-702.833" y2="-743.943" gradientTransform="matrix(1 0 0 -1 0 -690)" gradientUnits="userSpaceOnUse"><stop offset="0" stop-color="#1a6dff"/><stop offset="1" stop-color="#c822ff"/></linearGradient><path fill="url(#8dLVR0H0DMOYwFtuy8kvwb)" d="M19,25h2c0-3,2.691-5.999,6-5.999v-2C22.589,17.001,19,21,19,25z"/><linearGradient id="8dLVR0H0DMOYwFtuy8kvwc" x1="48.5" x2="48.5" y1="-702.833" y2="-743.943" gradientTransform="matrix(1 0 0 -1 0 -690)" gradientUnits="userSpaceOnUse"><stop offset="0" stop-color="#1a6dff"/><stop offset="1" stop-color="#c822ff"/></linearGradient><path fill="url(#8dLVR0H0DMOYwFtuy8kvwc)" d="M52,30c0-4-3.141-6.999-7-6.999v2c2.757,0,5,1.999,5,4.999H52z"/><linearGradient id="8dLVR0H0DMOYwFtuy8kvwd" x1="32" x2="32" y1="-702" y2="-745.334" gradientTransform="matrix(1 0 0 -1 0 -690)" gradientUnits="userSpaceOnUse"><stop offset="0" stop-color="#1a6dff"/><stop offset="1" stop-color="#c822ff"/></linearGradient><path fill="url(#8dLVR0H0DMOYwFtuy8kvwd)" d="M55.106,34.334C55.699,32.964,56,31.509,56,30.001c0-6.065-4.935-11-11-11	c-2.424,0-4.721,0.777-6.618,2.218c-1.601-4.85-6.147-8.218-11.382-8.218c-6.617,0-12,5.383-12,12C15,26.544,15.062,28,15.53,29H15	c-4.963,0-9,4.037-9,9c0,4.303,3.037,7.906,7.08,8.789C13.461,49.17,15.513,51,18,51h21h6h2c2.437,0,4.466-1.754,4.906-4.065	C55.338,46.488,58,43.553,58,40.001C58,37.734,56.912,35.64,55.106,34.334z M47,49h-2h-6H18c-1.302,0-2.402-1-2.816-2h34.632	C49.402,48,48.302,49,47,49z M51,45H15c-3.859,0-7-3.141-7-7s3.141-7,7-7h3.54l-0.627-1.407C17.083,27.727,17,26.807,17,25.001	c0-5.514,4.486-10,10-10c4.844,0,8.979,3.46,9.833,8.228l0.345,1.924l1.358-1.404c1.714-1.772,4.01-2.748,6.464-2.748	c4.963,0,9,4.037,9,9c0,1.368-0.303,2.683-0.884,3.877l-0.656,1.238l0.882,0.469C54.981,36.456,56,38.148,56,40.001	C56,42.758,53.757,45,51,45z"/></svg>